<?xml version="1.0" encoding="UTF-8" standalone="no"?>
<svg
   xmlns:dc="http://purl.org/dc/elements/1.1/"
   xmlns:cc="http://creativecommons.org/ns#"
   xmlns:rdf="http://www.w3.org/1999/02/22-rdf-syntax-ns#"
   xmlns:svg="http://www.w3.org/2000/svg"
   xmlns="http://www.w3.org/2000/svg"
   xmlns:sodipodi="http://sodipodi.sourceforge.net/DTD/sodipodi-0.dtd"
   xmlns:inkscape="http://www.inkscape.org/namespaces/inkscape"
   version="1.1"
   id="shop-11"
   width="11px"
   height="11px"
   viewBox="0 0 11 11"
   sodipodi:docname="shop2.svg"
   inkscape:version="0.92.5 (2060ec1f9f, 2020-04-08)">
  <metadata
     id="metadata8">
    <rdf:RDF>
      <cc:Work
         rdf:about="">
        <dc:format>image/svg+xml</dc:format>
        <dc:type
           rdf:resource="http://purl.org/dc/dcmitype/StillImage" />
        <dc:title></dc:title>
      </cc:Work>
    </rdf:RDF>
  </metadata>
  <defs
     id="defs6" />
  <sodipodi:namedview
     pagecolor="#ffffff"
     bordercolor="#666666"
     borderopacity="1"
     objecttolerance="10"
     gridtolerance="10"
     guidetolerance="10"
     inkscape:pageopacity="0"
     inkscape:pageshadow="2"
     inkscape:window-width="1628"
     inkscape:window-height="860"
     id="namedview4"
     showgrid="false"
     inkscape:zoom="21.454545"
     inkscape:cx="5.5"
     inkscape:cy="5.5"
     inkscape:window-x="52"
     inkscape:window-y="27"
     inkscape:window-maximized="0"
     inkscape:current-layer="shop-11" />
  <path
     d="M 5.5 0.40234375 C 2.6328605 0.4018479 0.30837751 2.6843538 0.30859375 5.5 C 0.30837766 8.3156461 2.6328606 10.598152 5.5 10.597656 C 8.3671393 10.598152 10.691622 8.315646 10.691406 5.5 C 10.691622 2.6843539 8.3671394 0.40184804 5.5 0.40234375 z M 5.4179688 1.3984375 A 3.4957628 3.4957628 0 0 1 7.2480469 1.8671875 A 3.4957628 3.4957628 0 0 1 8.9960938 4.8945312 L 5.5 4.8945312 L 2.0039062 4.8945312 A 3.4957628 3.4957628 0 0 1 3.7519531 1.8671875 A 3.4957628 3.4957628 0 0 1 5.4179688 1.3984375 z "
     id="path819" />
</svg>
