<?xml version="1.0" encoding="UTF-8" standalone="no"?>
<svg
   xmlns:dc="http://purl.org/dc/elements/1.1/"
   xmlns:cc="http://creativecommons.org/ns#"
   xmlns:rdf="http://www.w3.org/1999/02/22-rdf-syntax-ns#"
   xmlns:svg="http://www.w3.org/2000/svg"
   xmlns="http://www.w3.org/2000/svg"
   xmlns:sodipodi="http://sodipodi.sourceforge.net/DTD/sodipodi-0.dtd"
   xmlns:inkscape="http://www.inkscape.org/namespaces/inkscape"
   version="1.1"
   id="shop-11"
   width="11px"
   height="11px"
   viewBox="0 0 11 11"
   sodipodi:docname="mosque.svg"
   inkscape:version="0.92.5 (2060ec1f9f, 2020-04-08)">
  <metadata
     id="metadata8">
    <rdf:RDF>
      <cc:Work
         rdf:about="">
        <dc:format>image/svg+xml</dc:format>
        <dc:type
           rdf:resource="http://purl.org/dc/dcmitype/StillImage" />
      </cc:Work>
    </rdf:RDF>
  </metadata>
  <defs
     id="defs6" />
  <sodipodi:namedview
     pagecolor="#ffffff"
     bordercolor="#666666"
     borderopacity="1"
     objecttolerance="10"
     gridtolerance="10"
     guidetolerance="10"
     inkscape:pageopacity="0"
     inkscape:pageshadow="2"
     inkscape:window-width="1628"
     inkscape:window-height="860"
     id="namedview4"
     showgrid="false"
     inkscape:zoom="21.454545"
     inkscape:cx="3.8220342"
     inkscape:cy="7.504237"
     inkscape:window-x="52"
     inkscape:window-y="27"
     inkscape:window-maximized="0"
     inkscape:current-layer="shop-11" />
  <path
     d="M 5.5000001,7.0019193 C 4.3265369,7.0017317 3.3751722,7.8650791 3.3752607,8.9300842 3.3751723,9.9950893 4.326537,10.858437 5.5000001,10.85825 6.6734631,10.858437 7.6248277,9.9950893 7.6247394,8.9300842 7.6248277,7.8650791 6.6734631,7.0017318 5.5000001,7.0019193 Z"
     id="path819"
     inkscape:connector-curvature="0"
     sodipodi:nodetypes="ccccc"
  />
  <rect
     id="rect816"
     width="0.62711865"
     height="1.3050848"
     x="5.1864405"
     y="5.6968346"
  />
  <path
     inkscape:connector-curvature="0"
     id="path7552-2-1"
     d="m 5.7548123,0.2036665 c -1.6857597,0 -3.0186921,1.3329325 -3.0186921,3.0186922 0,1.6857598 1.3329324,3.0186923 3.0186921,3.0186923 0.9408725,0 1.9602104,-0.313639 2.5090675,-1.0192934 -0.3528272,0.2352181 -1.0192935,0.509669 -1.5289625,0.509669 -1.2937441,0 -2.273805,-1.2937444 -2.273805,-2.5874443 0,-1.2936999 0.9800609,-2.43064682 2.273805,-2.43064682 0.4704364,0 1.1369027,0.2744064 1.5289625,0.50966892 C 7.7150228,0.51730554 6.6957292,0.2036665 5.7548123,0.2036665 Z"
     sodipodi:nodetypes="ssscssscs"
  />
</svg>
