<?xml version="1.0" encoding="UTF-8" standalone="no"?>
<!-- (c) mapshakers 2015, Licence: CC0 1.0 Universal, www.mapshakers.com  -->

<svg
   xmlns:dc="http://purl.org/dc/elements/1.1/"
   xmlns:cc="http://creativecommons.org/ns#"
   xmlns:rdf="http://www.w3.org/1999/02/22-rdf-syntax-ns#"
   xmlns:svg="http://www.w3.org/2000/svg"
   xmlns="http://www.w3.org/2000/svg"
   xmlns:sodipodi="http://sodipodi.sourceforge.net/DTD/sodipodi-0.dtd"
   xmlns:inkscape="http://www.inkscape.org/namespaces/inkscape"
   version="1.1"
   id="caravan_site"
   x="0px"
   y="0px"
   width="256px"
   height="256px"
   viewBox="0 0 256 256"
   style="enable-background:new 0 0 256 256;"
   xml:space="preserve"
   sodipodi:docname="caravan_site.svg"
   inkscape:version="0.92.5 (2060ec1f9f, 2020-04-08)"><metadata
   id="metadata15"><rdf:RDF><cc:Work
       rdf:about=""><dc:format>image/svg+xml</dc:format><dc:type
         rdf:resource="http://purl.org/dc/dcmitype/StillImage" /><dc:title></dc:title></cc:Work></rdf:RDF></metadata><defs
   id="defs13" /><sodipodi:namedview
   pagecolor="#ffffff"
   bordercolor="#666666"
   borderopacity="1"
   objecttolerance="10"
   gridtolerance="10"
   guidetolerance="10"
   inkscape:pageopacity="0"
   inkscape:pageshadow="2"
   inkscape:window-width="1205"
   inkscape:window-height="838"
   id="namedview11"
   showgrid="false"
   inkscape:zoom="0.921875"
   inkscape:cx="7.0508475"
   inkscape:cy="128"
   inkscape:window-x="52"
   inkscape:window-y="27"
   inkscape:window-maximized="0"
   inkscape:current-layer="caravan_site" />
<style
   type="text/css"
   id="style2">
<![CDATA[
	.st0{fill:#D1D1D1;}
	.st1{fill:#454545;}
]]>
</style>

<circle
   class="st1"
   cx="81.412"
   cy="224.872"
   r="20.439"
   id="circle6" />
<path
   class="st1"
   d="M218.003,221.818c3.769-5.715,6.049-12.654,6.034-17.387c-0.045-14.7-6.594-40.914-32.464-68.222  c-15.927-16.812-45.923-31.756-81.215-31.756H34.01c-11.729,0-21.236,9.509-21.236,21.236v84.938  c0,11.729,9.507,21.236,21.236,21.236h18.486c-0.002-0.12-0.019-0.236-0.019-0.356v-17.52c0-11.729,9.507-21.238,21.236-21.238  h17.52c11.729,0,21.236,9.51,21.236,21.238v17.52c0,0.12-0.017,0.236-0.019,0.356h5.635l-0.042,0.045h57.604l0.043-0.045h25.972  v0.045h43.003v-10.091H218.003L218.003,221.818z M101.696,168.157H52.82c-9.23,0-16.71-7.479-16.71-16.709v-5.43  c0-9.23,7.48-16.711,16.71-16.711h48.876c9.228,0,16.71,7.48,16.71,16.711v5.43C118.406,160.678,110.924,168.157,101.696,168.157z   M143.526,222.747v-55.389c0-11.729,6.932-21.237,15.479-21.237h1.162c8.549,0,15.479,9.509,15.479,21.237v55.389H143.526z"
   id="path8" />
</svg>