<?xml version="1.0" encoding="UTF-8" standalone="no"?>
<!-- (c) mapshakers 2015, Licence: CC0 1.0 Universal, www.mapshakers.com  -->

<svg
   xmlns:dc="http://purl.org/dc/elements/1.1/"
   xmlns:cc="http://creativecommons.org/ns#"
   xmlns:rdf="http://www.w3.org/1999/02/22-rdf-syntax-ns#"
   xmlns:svg="http://www.w3.org/2000/svg"
   xmlns="http://www.w3.org/2000/svg"
   xmlns:sodipodi="http://sodipodi.sourceforge.net/DTD/sodipodi-0.dtd"
   xmlns:inkscape="http://www.inkscape.org/namespaces/inkscape"
   version="1.1"
   id="lighthouse"
   x="0px"
   y="0px"
   width="256px"
   height="256px"
   viewBox="0 0 256 256"
   style="enable-background:new 0 0 256 256;"
   xml:space="preserve"
   sodipodi:docname="lighthouse.svg"
   inkscape:version="0.92.5 (2060ec1f9f, 2020-04-08)"><metadata
   id="metadata63"><rdf:RDF><cc:Work
       rdf:about=""><dc:format>image/svg+xml</dc:format><dc:type
         rdf:resource="http://purl.org/dc/dcmitype/StillImage" /></cc:Work></rdf:RDF></metadata><defs
   id="defs61" /><sodipodi:namedview
   pagecolor="#ffffff"
   bordercolor="#666666"
   borderopacity="1"
   objecttolerance="10"
   gridtolerance="10"
   guidetolerance="10"
   inkscape:pageopacity="0"
   inkscape:pageshadow="2"
   inkscape:window-width="777"
   inkscape:window-height="480"
   id="namedview59"
   showgrid="false"
   inkscape:zoom="0.921875"
   inkscape:cx="128"
   inkscape:cy="128"
   inkscape:window-x="52"
   inkscape:window-y="27"
   inkscape:window-maximized="0"
   inkscape:current-layer="lighthouse" />
<style
   type="text/css"
   id="style2">
<![CDATA[
	.st0{fill:#D1D1D1;}
	.st1{fill:#454545;}
]]>
</style>

<path
   class="st1"
   d="M20.73,114.689c-1.662,0-3.13-1.896-3.419-4.581c-0.322-2.998,0.949-5.841,2.84-6.353l62.796-16.958  c1.887-0.52,3.684,1.505,4.005,4.504c0.323,2.999-0.949,5.842-2.84,6.351L21.315,114.61  C21.119,114.664,20.922,114.689,20.73,114.689z"
   id="path6" />
<path
   class="st1"
   d="M86.959,74.738c-0.138,0-0.276-0.013-0.416-0.038L13.215,61.644c-2.038-0.361-3.504-3.293-3.277-6.548  c0.228-3.253,2.064-5.604,4.099-5.233l73.329,13.057c2.036,0.361,3.503,3.294,3.276,6.547  C90.432,72.498,88.825,74.738,86.959,74.738z"
   id="path8" />
<path
   class="st1"
   d="M235.087,109.691L172.29,92.924c-1.89-0.505-3.162-3.317-2.84-6.281c0.322-2.964,2.119-4.966,4.005-4.452  l62.798,16.768c1.891,0.504,3.162,3.316,2.839,6.28c-0.288,2.657-1.756,4.532-3.418,4.532  C235.481,109.768,235.284,109.742,235.087,109.691z"
   id="path10" />
<path
   class="st1"
   d="M160.524,67.26c-0.229-3.131,1.238-5.951,3.276-6.3l73.328-12.561c2.034-0.355,3.871,1.908,4.099,5.037  c0.229,3.129-1.239,5.949-3.277,6.298l-73.328,12.563c-0.141,0.025-0.278,0.036-0.417,0.036  C162.34,72.332,160.734,70.175,160.524,67.26z"
   id="path12" />
<g
   id="g22">
	<g
   id="g16">
		<path
   class="st1"
   d="M107.637,115.751c0.002-3.114-2.558-6.121-5.648-6.896c-1.9-0.474-3.789-1.004-5.665-1.592    c-3.055-0.951-5.511,0.642-5.511,3.756c0,4.998,0,9.997,0,14.994c0,3.108,2.458,6.606,5.511,7.56    c1.876,0.588,3.766,1.119,5.665,1.592c3.091,0.773,5.65-1.312,5.648-4.42C107.637,125.748,107.637,120.75,107.637,115.751z"
   id="path14" />
	</g>
	<g
   id="g20">
		<path
   class="st1"
   d="M123.713,111.81c-3.162-0.079-5.744,2.23-5.744,5.344c0,4.999,0,9.997,0,14.995    c0,3.109,2.582,5.893,5.744,5.971c10.967,0.281,21.968-1.234,32.555-4.547c3.054-0.951,5.511-4.449,5.513-7.559    c0-4.999,0-9.997,0-14.995c0-3.114-2.459-4.708-5.513-3.756C145.681,110.577,134.678,112.092,123.713,111.81z"
   id="path18" />
	</g>
</g>
<g
   id="g32">
	<g
   id="g26">
		<path
   class="st1"
   d="M136.448,153.248c0-3.115-2.579-5.375-5.741-5.24c-11.571,0.509-23.208-0.985-34.384-4.482    c-3.055-0.952-5.512,0.643-5.512,3.756c0,4.292,0,8.581,0,12.872c0,3.109,2.457,6.607,5.512,7.56    c11.175,3.498,22.814,4.992,34.384,4.481c3.162-0.135,5.741-2.967,5.741-6.073C136.448,161.83,136.448,157.54,136.448,153.248z"
   id="path24" />
	</g>
	<g
   id="g30">
		<path
   class="st1"
   d="M152.39,144.654c-3.08,0.832-5.632,3.888-5.632,7.002c0,4.291,0,8.581,0,12.871    c0,3.109,2.552,5.146,5.632,4.314c1.298-0.349,2.591-0.725,3.878-1.128c3.054-0.952,5.511-4.45,5.513-7.56    c0-4.292,0-8.581,0-12.872c0-3.114-2.459-4.707-5.513-3.755C154.98,143.929,153.688,144.307,152.39,144.654z"
   id="path28" />
	</g>
</g>
<g
   id="g42">
	<g
   id="g36">
		<path
   class="st1"
   d="M116.526,187.424c0-3.114-2.581-5.89-5.716-6.382c-4.886-0.764-9.728-1.89-14.487-3.378    c-3.055-0.952-5.512,0.643-5.512,3.756c0,4.291,0,8.582,0,12.871c0,3.108,2.457,6.607,5.512,7.56    c4.759,1.488,9.601,2.614,14.487,3.377c3.135,0.493,5.716-1.824,5.716-4.933C116.526,196.006,116.526,191.716,116.526,187.424z"
   id="path34" />
	</g>
	<g
   id="g40">
		<path
   class="st1"
   d="M134.113,181.938c-3.157,0.251-5.747,2.827-5.746,5.941c0,4.291,0,8.581,0,12.871    c0,3.109,2.589,5.625,5.746,5.375c7.484-0.585,14.915-2.01,22.154-4.275c3.054-0.952,5.511-4.45,5.513-7.56    c0-4.289,0-8.58,0-12.87c0-3.114-2.459-4.709-5.513-3.757C149.028,179.93,141.596,181.355,134.113,181.938z"
   id="path38" />
	</g>
</g>
<g
   id="g52">
	<g
   id="g46">
		<path
   class="st1"
   d="M138.75,221.264c0-3.114-2.572-5.316-5.731-5.107c-12.33,0.828-24.774-0.623-36.695-4.353    c-3.055-0.953-5.512,0.641-5.512,3.755c0,5.201,0,10.4,0,15.601c0,3.109,2.457,6.607,5.512,7.561    c11.919,3.729,24.366,5.181,36.695,4.354c3.159-0.21,5.731-3.1,5.731-6.208C138.75,231.664,138.75,226.463,138.75,221.264z"
   id="path44" />
	</g>
	<g
   id="g50">
		<path
   class="st1"
   d="M156.034,211.875c-3.054,0.952-5.592,4.104-5.592,7.217c0,5.2,0,10.399,0,15.601    c0,3.109,2.536,5.049,5.592,4.099c0.078-0.023,0.155-0.048,0.233-0.071c3.054-0.952,5.511-4.451,5.513-7.561    c0-5.2,0-10.399,0-15.601c0-3.114-2.459-4.708-5.513-3.755C156.189,211.827,156.112,211.852,156.034,211.875z"
   id="path48" />
	</g>
</g>
<path
   class="st1"
   d="M146.571,85.7c1.552,7.093-3.119,12.896-10.38,12.896h-15.48c-7.261,0-11.932-5.803-10.381-12.896l2.453-11.218  c1.551-7.093,8.602-12.896,15.668-12.896c7.066,0,14.116,5.803,15.668,12.896L146.571,85.7z"
   id="path54" />
<path
   class="st1"
   d="M174.832,45.146c-12.719-5.635-25.628-12.727-38.442-20.036c-4.526-2.586-11.927-2.602-16.463-0.033  c-12.97,7.335-26.036,14.459-38.91,20.101c-4.491,1.942-4.03,3.85,1.011,4.395c30.292,3.063,61.488,3.063,91.78,0  C178.847,49.027,179.314,47.105,174.832,45.146z"
   id="path56" />
</svg>