<?xml version="1.0" encoding="UTF-8" standalone="no"?>
<!-- (c) mapshakers 2015, Licence: CC0 1.0 Universal, www.mapshakers.com  -->

<svg
   xmlns:dc="http://purl.org/dc/elements/1.1/"
   xmlns:cc="http://creativecommons.org/ns#"
   xmlns:rdf="http://www.w3.org/1999/02/22-rdf-syntax-ns#"
   xmlns:svg="http://www.w3.org/2000/svg"
   xmlns="http://www.w3.org/2000/svg"
   xmlns:sodipodi="http://sodipodi.sourceforge.net/DTD/sodipodi-0.dtd"
   xmlns:inkscape="http://www.inkscape.org/namespaces/inkscape"
   version="1.1"
   id="ruins"
   x="0px"
   y="0px"
   width="256px"
   height="256px"
   viewBox="0 0 256 256"
   style="enable-background:new 0 0 256 256;"
   xml:space="preserve"
   sodipodi:docname="ruins.svg"
   inkscape:version="0.92.5 (2060ec1f9f, 2020-04-08)"><metadata
   id="metadata15"><rdf:RDF><cc:Work
       rdf:about=""><dc:format>image/svg+xml</dc:format><dc:type
         rdf:resource="http://purl.org/dc/dcmitype/StillImage" /></cc:Work></rdf:RDF></metadata><defs
   id="defs13" /><sodipodi:namedview
   pagecolor="#ffffff"
   bordercolor="#666666"
   borderopacity="1"
   objecttolerance="10"
   gridtolerance="10"
   guidetolerance="10"
   inkscape:pageopacity="0"
   inkscape:pageshadow="2"
   inkscape:window-width="777"
   inkscape:window-height="480"
   id="namedview11"
   showgrid="false"
   inkscape:zoom="0.921875"
   inkscape:cx="128"
   inkscape:cy="128"
   inkscape:window-x="52"
   inkscape:window-y="27"
   inkscape:window-maximized="0"
   inkscape:current-layer="ruins" />
<style
   type="text/css"
   id="style2">
<![CDATA[
	.st0{fill:#D1D1D1;}
	.st1{fill:#454545;}
]]>
</style>

<path
   class="st1"
   d="M188.531,111.542c-0.058,0-0.104,0.141-0.104,0.312c0,0.172,0.047,0.414,0.104,0.156  S188.589,111.542,188.531,111.542z"
   id="path6" />
<path
   class="st1"
   d="M239.479,208.938c-0.012-0.006-0.936-4.417-2.054-9.802l-0.209-1.012c-1.118-5.385-11.66,3.083-16.466,2.751  s-9.785-15.828-10.417-21.292c0,0,4.188-12.854,4.499-17.316c0.382-5.487-5.378-8.396-10.546-6.517l-14.205,5.166  c-5.168,1.879-9.147-1.076-8.843-6.567l0.164-2.938c0.305-5.491,0.91-11.575,1.345-13.519s-1.02-3.511-3.231-3.482  c-2.211,0.028-7.99-3.994-7.99-8.064c0-4.071-3.955-14.803-8.789-14.803c-4.833,0-5.926-0.757-7.486,0.801  c-1.287,1.286-1.371,2.532-1.371,6.514s-2.545,14.704-5.654,14.981s-11.245-3.701-11.245-7.609s-1.843-14.319-4.095-14.45  c-2.251-0.13-5.796-0.237-7.876-0.237c-2.081,0-3.783-2.56-3.783-5.689s0.408-11.911,0.906-12.561s-0.523-4.282-2.271-8.071  c-1.748-3.789-6.707-8.313-11.02-10.055s-6.585-7.109-5.048-11.928c1.537-4.818,2.132-8.833,1.323-8.919  c-0.809-0.087-2.93-3.69-2.93-7.685s-3.971-14.529-8.823-14.529s-8.823,3.331-8.823,7.402c0,4.071-2.545,15.03-5.655,15.307  c-3.11,0.277-11.246-3.834-11.246-7.905s-3.97-14.804-8.823-14.804s-8.823,3.269-8.823,7.265s-2.544,14.755-5.655,15.032  c-3.11,0.277-11.246-3.772-11.246-7.767s-3.733-14.529-8.296-14.529c-4.563,0-8.296,4.5-8.296,10v23.593  c0,5.5,2.737,13.572,6.082,17.938l2.223,2.901c3.345,4.366,6.082,12.438,6.082,17.938c0,0,0,19.728,0,34.591  c0,27.25,0,71.747,0,71.747c0,5.5,0,10.769,0,11.708s4.5,1.708,10,1.708h42.577c5.5,0,14.5,0,20,0h4.704c5.5,0,10.438,0,10.974,0  c0.209,0,1.091,0,2.408,0c-0.918-13.25-1.711-40.567,6.452-48.729c8.721-8.721,26.446-2.054,35.167,6.667  c7.919,7.919,8.739,30.349,8.595,42.063h25.492c5.5,0,11.405,0,13.123,0s7.623,0,13.123,0h6c5.5,0,10-3.438,10-7.641  S239.49,208.943,239.479,208.938z M89.602,184.022c0,5.5-4.5,10-10,10h-3.96c-5.5,0-10-4.5-10-10v-12.771  c0-5.5,1.839-14.107,4.087-19.127c0,0,1.277-2.852,7.894-2.852c6.616,0,7.893,2.852,7.893,2.852  c2.248,5.02,4.086,13.627,4.086,19.127V184.022z M89.602,118.167c0,5.5-4.5,10-10,10h-3.96c-5.5,0-10-4.5-10-10v-12.771  c0-5.5,1.839-14.107,4.086-19.127c0,0,1.277-2.853,7.894-2.853c6.616,0,7.894,2.853,7.894,2.853  c2.248,5.02,4.086,13.627,4.086,19.127V118.167z M200.88,207.738l-0.382,0.958c-2.033,5.11-4.925,6.624-6.426,3.362  c-1.501-3.261-5.975-7.728-9.941-9.926c-3.966-2.198-4.031-7.182-0.146-11.073l1.661-1.664c3.886-3.892,9.732-3.451,12.991,0.979  l0.013,0.018C201.909,194.821,202.913,202.628,200.88,207.738z"
   id="path8" />
</svg>