<?xml version="1.0" encoding="UTF-8" standalone="no"?>
<!-- (c) mapshakers 2015, Licence: CC0 1.0 Universal, www.mapshakers.com  -->
<svg
   xmlns="http://www.w3.org/2000/svg"
   version="1.1"
   width="256px"
   height="256px"
   viewBox="0 0 256 256">
<path
   d="M180.774,14.839c0,8.579,0,17.156,0,25.733c-6.603,1.189-13.354,1.189-19.955,0c0-8.577,0-17.154,0-25.733  h-20.837c0,8.74,0,17.479,0,26.219c-6.602,1.189-13.354,1.189-19.956,0c0-8.739,0-17.479,0-26.219H99.19c0,8.579,0,17.156,0,25.733  c-6.603,1.189-13.354,1.189-19.956,0c0-8.577,0-17.154,0-25.733H59.642v51.474l16.987,22.172c0,49.725,0,99.453,0,149.177  c10.769,1.938,21.612,3.278,32.484,4.034v-39.913c0,0,1.998-30.184,21.112-41.018c20.59,10.834,20.59,41.018,20.59,41.018v39.913  c10.873-0.755,21.717-2.096,32.485-4.034c0-49.725,0-99.452,0-149.178l16.987-22.171V14.839H180.774z M140.265,122.418  c-6.815,1.228-13.784,1.228-20.598,0c0-6.753,0-13.506,0-20.26c-0.002-0.006,0.981-14.689,10.428-20.259  c10.175,5.555,10.17,20.224,10.17,20.259C140.265,108.912,140.265,115.665,140.265,122.418z"
   id="path6" />
</svg>