<?xml version="1.0" encoding="UTF-8" standalone="no"?>
<svg
   version="1.1"
   width="256px"
   height="256px"
   viewBox="0 0 256 256"
   xml:space="preserve"
   id="svg3"

   xmlns="http://www.w3.org/2000/svg"
   xmlns:svg="http://www.w3.org/2000/svg"><defs
   id="defs7" />
<path
   class="st1"
   d="M232.5,217.146h-5.077L158.225,95.708c-0.103-0.77-0.357-1.533-0.777-2.244l-13.993-23.68l-7.563-13.272  l13.911-23.542c1.677-2.838,0.736-6.498-2.102-8.174c-2.839-1.677-6.497-0.735-8.175,2.102l-10.44,17.669l-0.285-0.5l-0.267,0.468  l-10.236-17.321c-1.678-2.838-5.337-3.78-8.174-2.102c-2.838,1.677-3.779,5.337-2.102,8.174l13.706,23.193l-8.622,15.131  l-12.727,21.538c-0.398,0.675-0.645,1.396-0.757,2.126L30.174,217.146h-4.183c-4.926,0-8.919,3.994-8.919,8.92  s3.993,8.918,8.919,8.918H232.5c4.926,0,8.919-3.992,8.919-8.918S237.426,217.146,232.5,217.146z M78.745,217.063l50.5-91.947  l50.5,91.947H78.745z"
   id="path6" />
<path
   id="path9160"
   d="m 229.0428,63.498425 a 32.416309,32.416309 0 0 1 -32.4163,32.416309 32.416309,32.416309 0 0 1 -32.41631,-32.416309 32.416309,32.416309 0 0 1 32.41631,-32.41631 32.416309,32.416309 0 0 1 32.4163,32.41631 z" /></svg>
