<?xml version="1.0" encoding="UTF-8" standalone="no"?>
<svg
   xmlns:dc="http://purl.org/dc/elements/1.1/"
   xmlns:cc="http://creativecommons.org/ns#"
   xmlns:rdf="http://www.w3.org/1999/02/22-rdf-syntax-ns#"
   xmlns:svg="http://www.w3.org/2000/svg"
   xmlns="http://www.w3.org/2000/svg"
   xmlns:sodipodi="http://sodipodi.sourceforge.net/DTD/sodipodi-0.dtd"
   xmlns:inkscape="http://www.inkscape.org/namespaces/inkscape"
   version="1.1"
   id="svg4247"
   width="256"
   height="256"
   viewBox="0 0 256 256"
   sodipodi:docname="scout.svg"
   inkscape:version="1.0.1 (3bc2e813f5, 2020-09-07)">
  <metadata
     id="metadata8">
    <rdf:RDF>
      <cc:Work
         rdf:about="">
        <dc:format>image/svg+xml</dc:format>
        <dc:type
           rdf:resource="http://purl.org/dc/dcmitype/StillImage" />
        <dc:title></dc:title>
      </cc:Work>
    </rdf:RDF>
  </metadata>
  <defs
     id="defs6" />
  <sodipodi:namedview
     pagecolor="#ffffff"
     bordercolor="#666666"
     borderopacity="1"
     objecttolerance="10"
     gridtolerance="10"
     guidetolerance="10"
     inkscape:pageopacity="0"
     inkscape:pageshadow="2"
     inkscape:window-width="2105"
     inkscape:window-height="1005"
     id="namedview4"
     showgrid="false"
     inkscape:zoom="0.67012253"
     inkscape:cx="68.935312"
     inkscape:cy="372.78083"
     inkscape:window-x="112"
     inkscape:window-y="63"
     inkscape:window-maximized="0"
     inkscape:current-layer="svg4247"
     inkscape:document-rotation="0" />
  <path
     id="path4283"
     d="m 122.67496,244.13359 c -10.2897,-6.12918 -18.53606,-14.00311 -23.772207,-22.69864 l -2.470287,-4.10229 2.549438,-3.98543 c 4.945116,-7.73039 10.854226,-23.13749 10.854226,-28.30056 v -1.69998 l 7.28097,0.45736 c 4.00454,0.25154 7.39185,0.55049 7.52731,0.66426 0.1355,0.11381 0.52492,5.90347 0.86545,12.86598 0.58687,11.99999 1.71521,22.82445 2.45651,23.56575 1.37868,1.37868 2.24457,-4.5687 3.2429,-22.2739 0.44055,-7.81374 0.84637,-14.2437 0.9018,-14.28885 0.0554,-0.0452 3.31997,-0.29557 7.25459,-0.55654 l 7.15383,-0.47444 0.88064,4.7795 c 1.23364,6.69516 5.17969,16.60518 9.34179,23.46069 l 3.53157,5.81696 -1.56064,2.70713 c -4.93569,8.56148 -14.11285,17.76324 -23.03822,23.09994 -3.0766,1.83961 -6.07329,3.51581 -6.65933,3.72488 -0.58602,0.2091 -3.43917,-1.03369 -6.34034,-2.76182 z M 76.450171,216.10262 c -5.853696,-1.25758 -11.286211,-5.54285 -14.050716,-11.0834 -1.192957,-2.39097 -3.154719,-8.18631 -2.762616,-8.16124 0.0662,0.004 1.689479,0.48372 3.607323,1.06551 4.738278,1.4374 8.16433,1.32959 12.79413,-0.40263 5.240127,-1.9606 9.689094,-6.87866 11.508076,-12.72147 0.789513,-2.53602 1.668865,-4.16226 2.152706,-3.98112 0.449858,0.16844 4.045961,0.69749 7.991328,1.17566 8.331758,1.0098 8.183838,0.77711 5.670618,8.92124 -5.450707,17.66317 -15.995383,27.53253 -26.910849,25.18745 z m 94.536589,-0.89798 c -4.0453,-1.16229 -10.77531,-8.56117 -14.12042,-15.52374 -2.6123,-5.43737 -5.12016,-13.15259 -5.12016,-15.75176 0,-0.72722 1.96217,-1.25153 7.28097,-1.94562 4.00454,-0.52255 7.61215,-1.07528 8.01686,-1.22823 0.40475,-0.15296 1.1058,1.10494 1.55793,2.79537 1.23066,4.60133 5.04425,9.76872 9.01361,12.21344 3.17726,1.95684 4.0458,2.1517 9.5896,2.1517 3.35275,0 6.85725,-0.27465 7.7878,-0.61033 1.64096,-0.59197 1.67652,-0.52861 1.18217,2.10646 -1.15314,6.14694 -5.30168,11.50543 -11.18254,14.44414 -4.6321,2.31468 -9.13451,2.74821 -14.00582,1.34857 z M 33.271561,159.27962 C 18.817932,154.28711 8.8149727,138.11625 9.9354635,121.55427 10.659299,110.85528 14.305783,102.71179 21.735013,95.203172 c 10.41183,-10.52314 25.522442,-13.871047 39.954154,-8.852171 15.764468,5.482356 30.035094,22.468829 38.115573,45.369369 2.41373,6.84067 5.05901,18.76172 5.05901,22.7987 0,2.52311 -0.0344,2.55263 -3.01894,2.58982 -1.66042,0.0205 -5.576185,0.46206 -8.701677,0.98077 -3.125501,0.51874 -5.70098,0.90136 -5.723308,0.85029 -0.02235,-0.051 -0.932283,-2.4172 -2.022188,-5.25806 -4.849868,-12.64155 -14.526197,-20.35596 -23.81411,-18.98564 -9.950651,1.46808 -15.781861,8.80552 -15.947145,20.06635 l -0.08603,5.86027 -4.262053,-0.023 c -2.344127,-0.0127 -5.951673,-0.60676 -8.016765,-1.32011 z m 177.769989,-4.43597 c -0.0284,-9.37076 -2.99612,-14.71548 -10.24731,-18.45483 -4.33489,-2.23546 -11.22208,-2.23779 -15.53493,-0.005 -5.86566,3.03634 -12.29541,11.58319 -14.73338,19.5846 -0.48246,1.58343 -1.20911,2.80575 -1.61483,2.71628 -0.40569,-0.0895 -4.43378,-0.54796 -8.95128,-1.01885 -9.51121,-0.99143 -8.88704,-0.0907 -7.11569,-10.26846 1.33655,-7.67954 5.001,-18.85329 8.76743,-26.73419 8.58723,-17.96786 21.57439,-30.809115 35.39759,-34.999904 19.74725,-5.986783 40.85734,5.043093 47.8639,25.008564 1.87171,5.33345 2.57147,16.3854 1.36796,21.60538 -3.61429,15.67635 -15.95984,27.39523 -29.69797,28.1905 l -5.4835,0.31746 -0.018,-5.9413 z M 109.86592,150.89213 C 108.36218,141.4995 104.44819,130.03604 96.648503,112.1804 88.604942,93.766433 86.234588,86.715209 84.958878,77.406524 82.968429,62.882311 88.586851,46.751027 99.861861,34.617754 c 1.774349,-1.90937 7.061879,-6.524915 11.750119,-10.256825 4.68825,-3.731881 10.36086,-8.530308 12.60584,-10.663183 l 4.0818,-3.8779947 3.73194,3.5188337 c 2.05258,1.935403 7.56782,6.58645 12.25607,10.335734 13.50917,10.803588 19.57329,17.961233 23.81883,28.114029 6.95381,16.629473 5.38514,30.274837 -6.53913,56.880662 -9.22776,20.58927 -12.48402,29.82901 -14.41051,40.88985 -0.60722,3.48654 -1.18158,6.36344 -1.2763,6.39304 -0.0947,0.0296 -3.23694,-0.0468 -6.98273,-0.16976 l -6.81053,-0.22364 -0.46984,-35.64853 c -0.25841,-19.60671 -0.60153,-36.44768 -0.76243,-37.424385 -0.1609,-0.976761 -0.48999,-7.050152 -0.73128,-13.496476 -0.47924,-12.802035 -1.18461,-23.601815 -1.51962,-23.266797 -0.57936,0.579361 -1.05905,5.617026 -1.67442,17.584103 -1.1876,23.096289 -1.43201,30.979733 -1.92137,61.977155 l -0.4794,30.36701 h -5.86759 c -3.22719,0 -6.32678,0.1762 -6.88792,0.39151 -0.79218,0.30399 -1.21862,-0.84738 -1.90747,-5.14996 z"
     sodipodi:nodetypes="sscsscssssssscsscsssssscssssssssssssssssssscscssscsccssccccsscsssscssssccscscccsccccsssccsscscscssc"
     style="stroke-width:0.315248" />
</svg>
