<?xml version="1.0" encoding="UTF-8" standalone="no"?>
<!-- (c) mapshakers 2015, Licence: CC0 1.0 Universal, www.mapshakers.com  -->

<svg
   xmlns:dc="http://purl.org/dc/elements/1.1/"
   xmlns:cc="http://creativecommons.org/ns#"
   xmlns:rdf="http://www.w3.org/1999/02/22-rdf-syntax-ns#"
   xmlns:svg="http://www.w3.org/2000/svg"
   xmlns="http://www.w3.org/2000/svg"
   xmlns:sodipodi="http://sodipodi.sourceforge.net/DTD/sodipodi-0.dtd"
   xmlns:inkscape="http://www.inkscape.org/namespaces/inkscape"
   version="1.1"
   id="wind_generator"
   x="0px"
   y="0px"
   width="256px"
   height="256px"
   viewBox="0 0 256 256"
   xml:space="preserve"
   sodipodi:docname="wind_generator.svg"
   inkscape:version="0.92.5 (2060ec1f9f, 2020-04-08)"><metadata
   id="metadata23"><rdf:RDF><cc:Work
       rdf:about=""><dc:format>image/svg+xml</dc:format><dc:type
         rdf:resource="http://purl.org/dc/dcmitype/StillImage" /></cc:Work></rdf:RDF></metadata><defs
   id="defs21" /><sodipodi:namedview
   pagecolor="#ffffff"
   bordercolor="#666666"
   borderopacity="1"
   objecttolerance="10"
   gridtolerance="10"
   guidetolerance="10"
   inkscape:pageopacity="0"
   inkscape:pageshadow="2"
   inkscape:window-width="777"
   inkscape:window-height="480"
   id="namedview19"
   showgrid="false"
   inkscape:zoom="0.921875"
   inkscape:cx="128"
   inkscape:cy="128"
   inkscape:window-x="52"
   inkscape:window-y="27"
   inkscape:window-maximized="0"
   inkscape:current-layer="wind_generator" />
<style
   type="text/css"
   id="style2">
<![CDATA[
	.st0{fill:#D1D1D1;}
	.st1{fill:#454545;}
]]>
</style>

<g
   id="g16">
	<circle
   class="st1"
   cx="126.143"
   cy="117.118"
   r="10.855"
   id="circle6" />
	<path
   class="st1"
   d="M112.965,105.472c3.237-3.681,7.969-6.017,13.256-6.017c0.592,0,1.177,0.032,1.754,0.089   c-0.243-3.622-1.357-9.041-3.966-18.014c-7.975-27.412-24.755-69.914-29.773-68.432c-5.02,1.48,3.624,46.382,11.598,73.792   C108.859,97.289,111.017,102.51,112.965,105.472z"
   id="path8" />
	<path
   class="st1"
   d="M119.727,133.53c-5.221-2.067-9.208-6.546-10.607-12.067c-3.177,1.696-7.668,5.185-15.227,12.326   c-20.75,19.607-50.906,53.937-47.298,57.725c3.607,3.791,39.616-24.395,60.363-44C114.14,140.728,117.812,136.555,119.727,133.53z"
   id="path10" />
	<path
   class="st1"
   d="M161.992,118.857c-9.254-2.768-14.681-3.859-18.271-4.01c0.096,0.745,0.162,1.5,0.162,2.271   c0,5.35-2.388,10.133-6.146,13.373c2.982,2.013,8.264,4.245,18.668,7.357c27.35,8.182,72.206,16.973,73.745,11.729   C231.696,144.332,189.34,127.037,161.992,118.857z"
   id="path12" />
	<path
   class="st1"
   d="M127.538,134.119l-2.764,4.366c-2.195,3.466-5.809,7.6-11.54,13.178l-5.588,95.021h31.438l-6.708-114.046   C130.839,133.311,129.219,133.808,127.538,134.119z"
   id="path14" />
</g>
</svg>