<?xml version="1.0" encoding="UTF-8" standalone="no"?>
<svg
   xmlns:dc="http://purl.org/dc/elements/1.1/"
   xmlns:cc="http://creativecommons.org/ns#"
   xmlns:rdf="http://www.w3.org/1999/02/22-rdf-syntax-ns#"
   xmlns:svg="http://www.w3.org/2000/svg"
   xmlns="http://www.w3.org/2000/svg"
   xmlns:sodipodi="http://sodipodi.sourceforge.net/DTD/sodipodi-0.dtd"
   xmlns:inkscape="http://www.inkscape.org/namespaces/inkscape"
   height="3"
   width="12.240058"
   version="1.1"
   x="0px"
   y="0px"
   viewBox="0 0 12.240058 2.9999999"
   style="fill:#000000"
   xml:space="preserve"
   id="svg6"
   sodipodi:docname="ferry.svg"
   inkscape:version="0.92.5 (2060ec1f9f, 2020-04-08)"><metadata
     id="metadata12"><rdf:RDF><cc:Work
         rdf:about=""><dc:format>image/svg+xml</dc:format><dc:type
           rdf:resource="http://purl.org/dc/dcmitype/StillImage" /><dc:title></dc:title></cc:Work></rdf:RDF></metadata><defs
     id="defs10" /><sodipodi:namedview
     pagecolor="#ffffff"
     bordercolor="#666666"
     borderopacity="1"
     objecttolerance="10"
     gridtolerance="10"
     guidetolerance="10"
     inkscape:pageopacity="0"
     inkscape:pageshadow="2"
     inkscape:window-width="1712"
     inkscape:window-height="892"
     id="namedview8"
     showgrid="false"
     inkscape:pagecheckerboard="false"
     scale-x="0.13333"
     inkscape:zoom="35.600469"
     inkscape:cx="3.9812948"
     inkscape:cy="3.83303"
     inkscape:window-x="52"
     inkscape:window-y="27"
     inkscape:window-maximized="0"
     inkscape:current-layer="g4"
     fit-margin-top="0"
     fit-margin-left="0"
     fit-margin-right="0"
     fit-margin-bottom="0" /><g
     id="g4"
     transform="matrix(2.7492861,0,0,2.6940099,-130.11133,-129.38191)"><path
       d="m 51.725349,48.367761 c -0.203315,0 -0.307568,0.119904 -0.4014,0.224157 -0.08864,0.104262 -0.16682,0.192895 -0.323218,0.192895 -0.156399,0 -0.234578,-0.08865 -0.323219,-0.192895 -0.0886,-0.104263 -0.192894,-0.224157 -0.401399,-0.224157 -0.203313,0 -0.307566,0.119904 -0.401398,0.224157 -0.08864,0.104262 -0.16682,0.192895 -0.323218,0.192895 -0.1564,0 -0.234579,-0.08865 -0.32322,-0.192895 -0.09383,-0.104263 -0.198125,-0.224157 -0.401398,-0.224157 -0.203315,0 -0.307566,0.119904 -0.401398,0.224157 -0.08864,0.104262 -0.16682,0.192895 -0.32322,0.192895 -0.156398,0 -0.234577,-0.08865 -0.323218,-0.192895 -0.09383,-0.104263 -0.198084,-0.224157 -0.401398,-0.224157 -0.03138,0 -0.05215,0.02093 -0.05215,0.05215 0,0.03138 0.02093,0.05215 0.05215,0.05215 0.156399,0 0.234578,0.08865 0.323219,0.192895 0.09383,0.104263 0.198084,0.224157 0.40144,0.224157 0.203314,0 0.307566,-0.119904 0.401398,-0.224157 0.08864,-0.104262 0.16682,-0.192895 0.323218,-0.192895 0.1564,0 0.234579,0.08865 0.32322,0.192895 0.09383,0.104263 0.198126,0.224157 0.401439,0.224157 0.203315,0 0.307568,-0.119904 0.401399,-0.224157 0.08865,-0.104262 0.16682,-0.192895 0.323219,-0.192895 0.156398,0 0.234578,0.08865 0.323218,0.192895 0.09383,0.104263 0.198085,0.224157 0.4014,0.224157 0.203313,0 0.307566,-0.119904 0.401397,-0.224157 0.08865,-0.104262 0.16682,-0.192895 0.323219,-0.192895 0.03138,0 0.05215,-0.02093 0.05215,-0.05215 0,-0.03138 -0.02093,-0.05215 -0.05215,-0.05215 z"
       id="path2"
       inkscape:connector-curvature="0"
       style="stroke-width:0.05213218" /></g></svg>